<svg width="18" height="30" viewBox="0 0 18 30" fill="none" xmlns="http://www.w3.org/2000/svg">
<path d="M8.27273 29.9091V0.81818H10.1364V29.9091H8.27273ZM14.5455 9.54545C14.4091 8.39394 13.8561 7.5 12.8864 6.86364C11.9167 6.22727 10.7273 5.90909 9.31818 5.90909C8.28788 5.90909 7.38636 6.07576 6.61364 6.40909C5.84849 6.74242 5.25 7.20076 4.81818 7.78409C4.39394 8.36742 4.18182 9.0303 4.18182 9.77273C4.18182 10.3939 4.32955 10.928 4.625 11.375C4.92803 11.8144 5.31439 12.1818 5.78409 12.4773C6.25379 12.7652 6.74621 13.0038 7.26136 13.1932C7.77652 13.375 8.25 13.5227 8.68182 13.6364L11.0455 14.2727C11.6515 14.4318 12.3258 14.6515 13.0682 14.9318C13.8182 15.2121 14.5341 15.5947 15.2159 16.0795C15.9053 16.5568 16.4735 17.1705 16.9205 17.9205C17.3674 18.6705 17.5909 19.5909 17.5909 20.6818C17.5909 21.9394 17.2614 23.0758 16.6023 24.0909C15.9508 25.1061 14.9962 25.9129 13.7386 26.5114C12.4886 27.1098 10.9697 27.4091 9.18182 27.4091C7.51515 27.4091 6.07197 27.1402 4.85227 26.6023C3.64015 26.0644 2.68561 25.3144 1.98864 24.3523C1.29924 23.3902 0.909091 22.2727 0.818182 21H3.72727C3.80303 21.8788 4.09848 22.6061 4.61364 23.1818C5.13636 23.75 5.79545 24.1742 6.59091 24.4545C7.39394 24.7273 8.25758 24.8636 9.18182 24.8636C10.2576 24.8636 11.2235 24.6894 12.0795 24.3409C12.9356 23.9848 13.6136 23.4924 14.1136 22.8636C14.6136 22.2273 14.8636 21.4848 14.8636 20.6364C14.8636 19.8636 14.6477 19.2348 14.2159 18.75C13.7841 18.2652 13.2159 17.8712 12.5114 17.5682C11.8068 17.2652 11.0455 17 10.2273 16.7727L7.36364 15.9545C5.54545 15.4318 4.10606 14.6856 3.04545 13.7159C1.98485 12.7462 1.45455 11.4773 1.45455 9.90909C1.45455 8.60606 1.80682 7.4697 2.51136 6.5C3.22348 5.52273 4.17803 4.76515 5.375 4.22727C6.57955 3.68182 7.92424 3.40909 9.40909 3.40909C10.9091 3.40909 12.2424 3.67803 13.4091 4.21591C14.5758 4.74621 15.5 5.47348 16.1818 6.39773C16.8712 7.32197 17.2348 8.37121 17.2727 9.54545H14.5455Z" fill="#22C55E"/>
</svg>
